<svg width="30" height="31" viewBox="0 0 30 31" fill="none" xmlns="http://www.w3.org/2000/svg">
<path d="M14.9906 2.2417C9.19453 2.23935 4.5 6.93154 4.5 12.7229C4.5 17.3026 7.43672 21.1956 11.5266 22.6253C12.0773 22.7636 11.993 22.3721 11.993 22.105V20.2886C8.8125 20.6612 8.68359 18.5565 8.47031 18.205C8.03906 17.469 7.01953 17.2815 7.32422 16.93C8.04844 16.5573 8.78672 17.0237 9.64219 18.287C10.2609 19.2034 11.468 19.0487 12.0797 18.8964C12.2133 18.3456 12.4992 17.8534 12.893 17.4714C9.59766 16.8807 8.22422 14.8698 8.22422 12.4792C8.22422 11.319 8.60625 10.2526 9.35625 9.39248C8.87812 7.97451 9.40078 6.76045 9.47109 6.57998C10.8328 6.4581 12.2484 7.55498 12.3586 7.6417C13.132 7.4331 14.0156 7.32295 15.0047 7.32295C15.9984 7.32295 16.8844 7.43779 17.6648 7.64873C17.9297 7.44717 19.2422 6.50498 20.5078 6.61982C20.5758 6.80029 21.0867 7.98623 20.6367 9.38545C21.3961 10.2479 21.7828 11.3237 21.7828 12.4862C21.7828 14.8815 20.4 16.8948 17.0953 17.4761C17.3784 17.7544 17.6031 18.0864 17.7564 18.4526C17.9098 18.8188 17.9886 19.2119 17.9883 19.6089V22.2456C18.007 22.4565 17.9883 22.6651 18.3398 22.6651C22.4906 21.2659 25.4789 17.3448 25.4789 12.7253C25.4789 6.93154 20.782 2.2417 14.9906 2.2417Z" fill="#CEFF7E"/>
</svg>
